<?xml version="1.0" encoding="UTF-8"?>
<svg version="1.1" xmlns="http://www.w3.org/2000/svg" width="500" height="500">
<path d="M0 0 C3.3 0 6.6 0 10 0 C10.94089541 3.76358165 10.78985581 5.92301079 10.24902344 9.66650391 C9.87450241 13.17598626 9.994946 16.6473443 10.06518555 20.171875 C10.24798338 29.38787004 9.99572471 38.36793329 8.6875 47.5 C8.51081787 48.76106567 8.51081787 48.76106567 8.33056641 50.04760742 C7.6022519 54.67161186 6.4396809 58.79349197 4.70678711 63.13623047 C0.96657803 72.99901325 0.68421215 84.16661342 0 94.5625 C-1.22475551 112.49493121 -4.67444139 126.65167893 -13.33984375 142.44140625 C-16.29004617 148.13028714 -16.64965685 153.81810007 -17.21020508 160.10913086 C-17.93399531 167.70378657 -19.56077931 175.12155861 -23 182 C-23.66 182 -24.32 182 -25 182 C-25.12955078 182.85658203 -25.12955078 182.85658203 -25.26171875 183.73046875 C-27.78628401 191.49116937 -37.12269153 196.76891377 -43.859375 200.5 C-47.96937775 202.46298639 -52.13793774 203.89440138 -56.50390625 205.17578125 C-59.20609255 205.94540197 -59.20609255 205.94540197 -62 208 C-62.99 208 -63.98 208 -65 208 C-65 208.66 -65 209.32 -65 210 C-66.98 210.66 -68.96 211.32 -71 212 C-69.02 212 -67.04 212 -65 212 C-64.67 213.65 -64.34 215.3 -64 217 C-62.68 217.33 -61.36 217.66 -60 218 C-58.44865034 223.32979023 -60.07935528 225.94765527 -62.61328125 230.640625 C-68.26858413 240.26260511 -75.45806157 244.91489204 -86 248 C-86.92039062 248.27714844 -87.84078125 248.55429688 -88.7890625 248.83984375 C-95.85860548 250.71448509 -102.78822527 251.3871733 -110.0625 251.9375 C-129.85709493 253.45916603 -149.17096336 256.48532693 -164.890625 269.57421875 C-167.44427131 271.3002945 -169.76681569 271.94170392 -172.75 272.6875 C-173.73484375 272.93886719 -174.7196875 273.19023437 -175.734375 273.44921875 C-176.85585938 273.72185547 -176.85585938 273.72185547 -178 274 C-178.75943442 278.05358489 -179.1282288 281.88575802 -179.1328125 286.0078125 C-179.13583374 287.71771362 -179.13583374 287.71771362 -179.13891602 289.4621582 C-179.13432373 290.670896 -179.12973145 291.87963379 -179.125 293.125 C-179.12234131 294.38981201 -179.11968262 295.65462402 -179.11694336 296.95776367 C-179.07908032 304.50209401 -178.88754184 312.00697833 -178.42626953 319.53613281 C-178.0747464 325.58622298 -177.88970123 331.63348919 -177.74609375 337.69140625 C-177.71498253 338.9981002 -177.71498253 338.9981002 -177.6832428 340.33119202 C-177.57969777 344.76144548 -177.48322233 349.1917746 -177.39282227 353.62231445 C-177.35571675 355.27685738 -177.31852939 356.93139848 -177.28125 358.5859375 C-177.26770981 359.34455582 -177.25416962 360.10317413 -177.24021912 360.88478088 C-177.14360293 365.01726452 -176.75438578 368.93871264 -176 373 C-175.5123093 378.65962042 -175.23924432 384.3249841 -175 390 C-174.96455078 390.76554199 -174.92910156 391.53108398 -174.89257812 392.31982422 C-174.44781067 403.01466607 -175.27139413 411.84839424 -179 422 C-179.25007812 422.69351562 -179.50015625 423.38703125 -179.7578125 424.1015625 C-181.68607048 428.95545328 -184.40591945 433.47830228 -187 438 C-187.66 438 -188.32 438 -189 438 C-189.2578125 438.72574219 -189.515625 439.45148438 -189.78125 440.19921875 C-191.05242499 443.12047667 -192.54016402 445.30872649 -194.5 447.8125 C-195.1084375 448.60269531 -195.716875 449.39289063 -196.34375 450.20703125 C-196.8903125 450.79871094 -197.436875 451.39039063 -198 452 C-198.66 452 -199.32 452 -200 452 C-200.33 452.99 -200.66 453.98 -201 455 C-201.66 455 -202.32 455 -203 455 C-203.33 455.99 -203.66 456.98 -204 458 C-204.66 458 -205.32 458 -206 458 C-206 458.66 -206 459.32 -206 460 C-215.77675402 469.04281473 -227.92050523 475.62309746 -240 481 C-240.65758301 481.30631348 -241.31516602 481.61262695 -241.99267578 481.92822266 C-273.5969053 496.621619 -314.91227606 500.59767291 -348.0234375 488.56640625 C-357.82608049 484.83476245 -366.44261479 480.0405072 -375 474 C-375.78761719 473.45859375 -376.57523438 472.9171875 -377.38671875 472.359375 C-377.91910156 471.91078125 -378.45148438 471.4621875 -379 471 C-379 470.34 -379 469.68 -379 469 C-379.99 468.67 -380.98 468.34 -382 468 C-382 467.34 -382 466.68 -382 466 C-382.99 465.67 -383.98 465.34 -385 465 C-396.5553334 451.2462041 -399.89202507 436.71806663 -399 419 C-397.30420495 402.35884642 -388.16849059 388.76973237 -378 376 C-377.34 375.01 -376.68 374.02 -376 373 C-375.34 373 -374.68 373 -374 373 C-373.67 372.01 -373.34 371.02 -373 370 C-370.97512433 368.19154589 -368.96115399 366.52398033 -366.8125 364.875 C-366.18827148 364.39144043 -365.56404297 363.90788086 -364.92089844 363.40966797 C-340.81371918 345 -340.81371918 345 -332 345 C-332 344.34 -332 343.68 -332 343 C-322.46473712 339.41509377 -312.93508893 336.3087538 -303 334 C-301.74960937 333.69835937 -300.49921875 333.39671875 -299.2109375 333.0859375 C-279.11184023 328.75213875 -254.90169295 328.87380636 -235 334 C-233.87335938 334.27457031 -232.74671875 334.54914063 -231.5859375 334.83203125 C-224.29429302 336.70570698 -224.29429302 336.70570698 -223 338 C-221.00041636 338.04080783 -218.99954746 338.04254356 -217 338 C-216.9512952 330.92649603 -217.00009958 323.88133595 -217.33992004 316.81561279 C-218.2253728 298.38827479 -218.25715128 279.94853098 -218.29516602 261.50390625 C-218.30406509 257.66064811 -218.32508176 253.81774684 -218.35668945 249.97460938 C-218.66242145 211.92473159 -215.9306665 170.69733313 -190 140 C-189.34 140 -188.68 140 -188 140 C-187.90847656 139.43925781 -187.81695312 138.87851563 -187.72265625 138.30078125 C-185.23524235 130.3813932 -177.23476434 124.10018851 -171 119 C-170.08089844 118.2059375 -169.16179687 117.411875 -168.21484375 116.59375 C-161.80642874 111.1031854 -155.24086192 106.34705399 -148 102 C-146.65989868 101.18088135 -146.65989868 101.18088135 -145.29272461 100.34521484 C-138.10378297 96.03172573 -130.80182116 92.51991098 -123.0625 89.3125 C-121.98548828 88.85294922 -120.90847656 88.39339844 -119.79882812 87.91992188 C-113.3068013 85.1964564 -106.80018134 82.95387099 -100.05322266 80.95214844 C-96.4490193 79.8281765 -92.99297386 78.46865105 -89.50634766 77.02685547 C-84.77823979 75.08974056 -79.97502867 73.34636618 -75.1875 71.5625 C-73.05593607 70.76316353 -70.92442512 69.96368575 -68.79296875 69.1640625 C-65.57126594 67.95740522 -62.34770319 66.75804861 -59.11328125 65.5859375 C-37.37216797 57.56600362 -16.99367633 46.50221626 -5 26 C-3.39026019 22.39471496 -2.1081658 18.78623314 -1 15 C-0.67 14.01 -0.34 13.02 0 12 C0.068991 9.93854893 0.08467727 7.87498599 0.0625 5.8125 C0.04896484 4.18248047 0.04896484 4.18248047 0.03515625 2.51953125 C0.02355469 1.68808594 0.01195312 0.85664062 0 0 Z " fill="#145D88" transform="translate(444,0)"/>
<path d="M0 0 C2.88326225 8.64978674 1.12925649 21.86284997 -2.78125 29.94921875 C-4.92708208 33.55999388 -7.28829805 36.79359567 -10 40 C-10.92039062 41.15435547 -10.92039062 41.15435547 -11.859375 42.33203125 C-22.16416319 54.63191941 -35.98073649 62.6033517 -50 70 C-51.22855713 70.6504126 -51.22855713 70.6504126 -52.48193359 71.31396484 C-61.10160861 75.86524309 -69.75092479 80.35886695 -78.44650269 84.76344299 C-96.27658629 93.79758578 -113.76447944 102.87320201 -129 116 C-129.82757813 116.68320313 -130.65515625 117.36640625 -131.5078125 118.0703125 C-142.03482266 127.05207346 -148.77786112 137.30303488 -154 150 C-152.91332031 148.89011719 -152.91332031 148.89011719 -151.8046875 147.7578125 C-134.17906481 130.42676846 -109.26655031 123.02175371 -86.73095703 114.20483398 C-56.62063288 102.41438249 -26.42548497 90.09886457 -8 62 C-7.67 62.66 -7.34 63.32 -7 64 C-8.30141722 66.92818875 -9.69867131 69.57813984 -11.5625 72.1875 C-13.43671685 75.85444601 -13.93833686 79.42970094 -14.5703125 83.4765625 C-15 86 -15 86 -16 89 C-16.99 89 -17.98 89 -19 89 C-18.94457031 89.65484375 -18.88914062 90.3096875 -18.83203125 90.984375 C-18.78065245 98.25961303 -21.16428308 102.51401127 -26.10742188 107.58251953 C-44.86524028 125.61034812 -70.54460437 133.05496188 -94.61820984 141.1443634 C-125.88454096 151.5217686 -125.88454096 151.5217686 -152 171 C-152.51949219 171.53367188 -153.03898437 172.06734375 -153.57421875 172.6171875 C-156.92210613 176.33706237 -158.90729142 180.50455195 -161 185 C-160.42765625 184.57074219 -159.8553125 184.14148438 -159.265625 183.69921875 C-158.51796875 183.13847656 -157.7703125 182.57773438 -157 182 C-156.00226563 181.23623047 -156.00226563 181.23623047 -154.984375 180.45703125 C-144.7751793 172.94292043 -133.62449786 167.65675548 -121.62109375 163.68359375 C-120.72488312 163.38633896 -119.82867249 163.08908417 -118.90530396 162.78282166 C-108.32757445 159.35370187 -97.57410402 156.61583273 -86.79101562 153.91772461 C-83.3140704 153.04724583 -79.84050617 152.16412456 -76.3671875 151.27929688 C-74.14861985 150.71802872 -71.92987651 150.15745445 -69.7109375 149.59765625 C-68.67673676 149.3352565 -67.64253601 149.07285675 -66.57699585 148.80250549 C-65.62394562 148.56482956 -64.67089539 148.32715363 -63.68896484 148.08227539 C-62.43495377 147.76753014 -62.43495377 147.76753014 -61.15560913 147.44642639 C-59 147 -59 147 -56 147 C-56 147.66 -56 148.32 -56 149 C-63.63825343 151.1200664 -71.30266896 153.10589236 -79 155 C-79 155.99 -79 156.98 -79 158 C-79.66 158 -80.32 158 -81 158 C-80.67 158.66 -80.34 159.32 -80 160 C-77.66752239 160.33926947 -75.33414529 160.67240066 -73 161 C-72.34 161.66 -71.68 162.32 -71 163 C-68.78927023 163.24253813 -68.78927023 163.24253813 -66.375 163.125 C-65.55773437 163.10695312 -64.74046875 163.08890625 -63.8984375 163.0703125 C-63.27195312 163.04710937 -62.64546875 163.02390625 -62 163 C-61.67 164.32 -61.34 165.64 -61 167 C-75.62588672 173.82072602 -90.97011722 176.39173826 -106.76171875 179.2109375 C-128.54394391 183.14333719 -150.50933791 188.26940497 -164 207.4375 C-165.01067671 208.9512591 -166.01465271 210.46963248 -167 212 C-167.61488281 211.855625 -168.22976563 211.71125 -168.86328125 211.5625 C-169.67152344 211.376875 -170.47976563 211.19125 -171.3125 211 C-172.11300781 210.814375 -172.91351563 210.62875 -173.73828125 210.4375 C-176.10695938 209.90504177 -176.10695938 209.90504177 -179 210 C-179.33 210.99 -179.66 211.98 -180 213 C-181.04674479 168.19932299 -171.24501881 126.60515994 -139.79638672 93.3449707 C-134.02400391 87.42172053 -127.92887628 82.12796368 -121.25 77.25 C-120.60925537 76.78005615 -119.96851074 76.3101123 -119.30834961 75.82592773 C-101.80728225 63.5289545 -82.26869022 54.58255927 -63.03369141 45.40942383 C-38.75844522 33.80751136 -16.19232356 22.11157175 0 0 Z " fill="#FAFAFB" transform="translate(442,56)"/>
<path d="M0 0 C2.64 0 5.28 0 8 0 C9.04542756 2.78780682 8.93713377 4.45233019 8.51953125 7.45703125 C7.94526707 11.72368369 7.97953067 15.87382283 8.06518555 20.171875 C8.24798338 29.38787004 7.99572471 38.36793329 6.6875 47.5 C6.56971191 48.34071045 6.45192383 49.1814209 6.33056641 50.04760742 C5.6022519 54.67161186 4.4396809 58.79349197 2.70678711 63.13623047 C-1.03342197 72.99901325 -1.31578785 84.16661342 -2 94.5625 C-3.22475551 112.49493121 -6.67444139 126.65167893 -15.33984375 142.44140625 C-18.29004617 148.13028714 -18.64965685 153.81810007 -19.21020508 160.10913086 C-19.93399531 167.70378657 -21.56077931 175.12155861 -25 182 C-25.66 182 -26.32 182 -27 182 C-27.12955078 182.85658203 -27.12955078 182.85658203 -27.26171875 183.73046875 C-29.82769679 191.61847531 -39.29114684 196.80171784 -46.125 200.55859375 C-54.98373984 205 -54.98373984 205 -60 205 C-60 204.34 -60 203.68 -60 203 C-60.90649292 203.24737915 -60.90649292 203.24737915 -61.83129883 203.49975586 C-64.82434737 204.31487805 -67.81834968 205.12643411 -70.8125 205.9375 C-71.95871826 206.24888916 -73.10493652 206.56027832 -74.28588867 206.88110352 C-81.10144428 208.7204225 -87.92786626 210.49441389 -94.78125 212.1875 C-130.74158858 221.09738684 -130.74158858 221.09738684 -162.0390625 240.3984375 C-164 242 -164 242 -166 243 C-164.70170711 236.76819413 -162.12824749 232.79841754 -158 228 C-157.38382812 227.27683594 -156.76765625 226.55367187 -156.1328125 225.80859375 C-141.56415926 210.00297939 -119.29095946 203.21777397 -99.5 196.4375 C-96.36354913 195.35584234 -93.22831842 194.2706939 -90.09375 193.18359375 C-89.33154144 192.91930573 -88.56933289 192.6550177 -87.7840271 192.38272095 C-52.07024637 180.72976692 -52.07024637 180.72976692 -25 156 C-23.82147092 152.33398265 -23.22624303 148.8388334 -23 145 C-22.01 145 -21.02 145 -20 145 C-19.87044922 143.62328125 -19.87044922 143.62328125 -19.73828125 142.21875 C-18.96142677 135.43374575 -18.19605848 130.335028 -14.16015625 124.78125 C-12.5685735 122.3376078 -12.11128056 119.97218021 -11.53125 117.14453125 C-10.69007919 113.74892262 -9.27649688 110.60434553 -7.90234375 107.39453125 C-6.97781307 104.941123 -6.44447509 102.57978839 -6 100 C-5.34 100 -4.68 100 -4 100 C-4.05329468 99.1495813 -4.05329468 99.1495813 -4.10766602 98.28198242 C-6.50931626 58.43222988 -6.50931626 58.43222988 -1.125 49.4375 C5.60856152 36.36357763 5.35303847 20.23208751 3 6 C2.73445312 7.05960937 2.46890625 8.11921875 2.1953125 9.2109375 C1.83890482 10.59905163 1.48211404 11.98706743 1.125 13.375 C0.95097656 14.07367188 0.77695312 14.77234375 0.59765625 15.4921875 C-0.7734375 20.7734375 -0.7734375 20.7734375 -3 23 C-2.86722656 22.42894531 -2.73445312 21.85789062 -2.59765625 21.26953125 C-1.05933154 14.20671195 -0.42935274 7.20860655 0 0 Z " fill="#185E88" transform="translate(446,0)"/>
<path d="M0 0 C-3 2 -3 2 -6 2 C-6 2.66 -6 3.32 -6 4 C-7.98 4.66 -9.96 5.32 -12 6 C-10.02 6 -8.04 6 -6 6 C-5.67 7.65 -5.34 9.3 -5 11 C-3.02 11.495 -3.02 11.495 -1 12 C0.55134966 17.32979023 -1.07935528 19.94765527 -3.61328125 24.640625 C-9.26858413 34.26260511 -16.45806157 38.91489204 -27 42 C-27.92039062 42.27714844 -28.84078125 42.55429688 -29.7890625 42.83984375 C-36.85860548 44.71448509 -43.78822527 45.3871733 -51.0625 45.9375 C-70.85709493 47.45916603 -90.17096336 50.48532693 -105.890625 63.57421875 C-108.44427131 65.3002945 -110.76681569 65.94170392 -113.75 66.6875 C-114.73484375 66.93886719 -115.7196875 67.19023437 -116.734375 67.44921875 C-117.48203125 67.63097656 -118.2296875 67.81273437 -119 68 C-119.75943442 72.05358489 -120.1282288 75.88575802 -120.1328125 80.0078125 C-120.13583374 81.71771362 -120.13583374 81.71771362 -120.13891602 83.4621582 C-120.13432373 84.670896 -120.12973145 85.87963379 -120.125 87.125 C-120.12234131 88.38981201 -120.11968262 89.65462402 -120.11694336 90.95776367 C-120.07908032 98.50209401 -119.88754184 106.00697833 -119.42626953 113.53613281 C-119.0747464 119.58622298 -118.88970123 125.63348919 -118.74609375 131.69140625 C-118.72535294 132.56253555 -118.70461212 133.43366486 -118.6832428 134.33119202 C-118.57969777 138.76144548 -118.48322233 143.1917746 -118.39282227 147.62231445 C-118.35571675 149.27685738 -118.31852939 150.93139848 -118.28125 152.5859375 C-118.26770981 153.34455582 -118.25416962 154.10317413 -118.24021912 154.88478088 C-118.14360293 159.01726452 -117.75438578 162.93871264 -117 167 C-116.5123093 172.65962042 -116.23924432 178.3249841 -116 184 C-115.96455078 184.76554199 -115.92910156 185.53108398 -115.89257812 186.31982422 C-115.44781067 197.01466607 -116.27139413 205.84839424 -120 216 C-120.25007813 216.69351563 -120.50015625 217.38703125 -120.7578125 218.1015625 C-122.68607048 222.95545328 -125.40591945 227.47830228 -128 232 C-128.66 232 -129.32 232 -130 232 C-130.268125 232.804375 -130.53625 233.60875 -130.8125 234.4375 C-131.204375 235.283125 -131.59625 236.12875 -132 237 C-132.99 237.33 -133.98 237.66 -135 238 C-134.67 237.01 -134.34 236.02 -134 235 C-133.34 235 -132.68 235 -132 235 C-131.80639893 234.1184021 -131.80639893 234.1184021 -131.60888672 233.21899414 C-130.46350266 229.04481782 -128.10717278 225.25973631 -126.05859375 221.45898438 C-120.48443023 210.71473238 -119.56225933 200.75366912 -119.75 188.75 C-119.75515625 187.44675781 -119.7603125 186.14351562 -119.765625 184.80078125 C-119.81574171 178.47981158 -120.0191395 172.20283739 -120.48046875 165.8984375 C-121.20146124 155.90102267 -121.36647474 145.89429206 -121.5625 135.875 C-121.58367889 134.84850342 -121.60485779 133.82200684 -121.62667847 132.7644043 C-122.08691966 110.17621093 -122.10641054 87.59177714 -122 65 C-121.34 65 -120.68 65 -120 65 C-119.67 64.01 -119.34 63.02 -119 62 C-118.443125 62.05542969 -117.88625 62.11085938 -117.3125 62.16796875 C-114.55440289 62.19126349 -112.60079788 61.96160546 -110 61 C-107.64432008 58.45130347 -105.84816502 55.74003974 -103.93359375 52.84765625 C-99.3639893 46.11787515 -93.42198677 42.45763253 -86.3125 38.8125 C-85.68988281 38.49128174 -85.06726563 38.17006348 -84.42578125 37.83911133 C-70.72827277 31.16123075 -55.73419077 29.14823562 -40.86450195 26.65087891 C-29.73926708 24.76845937 -19.38156149 22.49133921 -8.93286133 18.16748047 C-6 17 -6 17 -4 17 C-4.33 15.68 -4.66 14.36 -5 13 C-5.62648438 13.09539062 -6.25296875 13.19078125 -6.8984375 13.2890625 C-7.71570313 13.39992187 -8.53296875 13.51078125 -9.375 13.625 C-10.18710937 13.74101562 -10.99921875 13.85703125 -11.8359375 13.9765625 C-12.55007813 13.98429688 -13.26421875 13.99203125 -14 14 C-14.99 13.01 -14.99 13.01 -16 12 C-18.32275177 11.59952556 -20.65739357 11.2602896 -23 11 C-23.495 9.515 -23.495 9.515 -24 8 C-23.34 8 -22.68 8 -22 8 C-22 7.01 -22 6.02 -22 5 C-19.08919272 3.96189556 -16.17062342 2.94762359 -13.25 1.9375 C-12.0125 1.49567383 -12.0125 1.49567383 -10.75 1.04492188 C-9.95078125 0.77099609 -9.1515625 0.49707031 -8.328125 0.21484375 C-7.5949707 -0.04176025 -6.86181641 -0.29836426 -6.10644531 -0.56274414 C-3.72635182 -1.05680388 -2.28425328 -0.76066537 0 0 Z " fill="#1A5E87" transform="translate(385,206)"/>
<path d="M0 0 C0 0.66 0 1.32 0 2 C-7.63825343 4.1200664 -15.30266896 6.10589236 -23 8 C-23 8.99 -23 9.98 -23 11 C-23.66 11 -24.32 11 -25 11 C-24.505 11.99 -24.505 11.99 -24 13 C-21.66752239 13.33926947 -19.33414529 13.67240066 -17 14 C-16.01 14.99 -16.01 14.99 -15 16 C-12.78927023 16.24253813 -12.78927023 16.24253813 -10.375 16.125 C-9.55773437 16.10695312 -8.74046875 16.08890625 -7.8984375 16.0703125 C-6.95871094 16.03550781 -6.95871094 16.03550781 -6 16 C-5.505 17.98 -5.505 17.98 -5 20 C-16.67989865 25.44687581 -28.47889997 28.10478696 -41.10302734 30.45947266 C-43.787088 30.96027413 -46.46587167 31.48293209 -49.14453125 32.01171875 C-50.6585397 32.30112911 -52.17284308 32.58900288 -53.6875 32.875 C-54.36345215 33.00737061 -55.0394043 33.13974121 -55.73583984 33.27612305 C-59.44057052 33.9408429 -62.36412639 34.01498575 -66 33 C-66 32.34 -66 31.68 -66 31 C-67.051875 31.185625 -68.10375 31.37125 -69.1875 31.5625 C-72.57119882 31.95079331 -74.76425888 31.88247485 -78 31 C-77.67 30.01 -77.34 29.02 -77 28 C-77.99 28.33 -78.98 28.66 -80 29 C-82.6875 28.5625 -82.6875 28.5625 -85 28 C-85.33 27.01 -85.66 26.02 -86 25 C-83.27768181 23.77417901 -80.54829138 22.57014317 -77.8125 21.375 C-77.08224609 21.04371094 -76.35199219 20.71242187 -75.59960938 20.37109375 C-59.93420939 13.59341049 -42.70318844 10.04868526 -26.20898438 5.84765625 C-23.31252355 5.10906872 -20.41796315 4.36331899 -17.5234375 3.6171875 C-15.66937878 3.14280705 -13.81521621 2.66883229 -11.9609375 2.1953125 C-11.10172699 1.97352325 -10.24251648 1.75173401 -9.35726929 1.52322388 C-8.16794296 1.22193069 -8.16794296 1.22193069 -6.95458984 0.91455078 C-6.2607016 0.73723419 -5.56681335 0.5599176 -4.85189819 0.37722778 C-3 0 -3 0 0 0 Z " fill="#DDDDDE" transform="translate(386,203)"/>
<path d="M0 0 C-5.92038508 3.01327186 -11.1082781 3.56042451 -17.6875 3.9375 C-37.6059191 5.39728001 -57.07448446 8.40499429 -72.890625 21.57421875 C-75.44427131 23.3002945 -77.76681569 23.94170392 -80.75 24.6875 C-81.73484375 24.93886719 -82.7196875 25.19023437 -83.734375 25.44921875 C-84.48203125 25.63097656 -85.2296875 25.81273437 -86 26 C-86.75943442 30.05358489 -87.1282288 33.88575802 -87.1328125 38.0078125 C-87.13482666 39.14774658 -87.13684082 40.28768066 -87.13891602 41.4621582 C-87.13432373 42.670896 -87.12973145 43.87963379 -87.125 45.125 C-87.12234131 46.38981201 -87.11968262 47.65462402 -87.11694336 48.95776367 C-87.07908032 56.50209401 -86.88754184 64.00697833 -86.42626953 71.53613281 C-86.0747464 77.58622298 -85.88970123 83.63348919 -85.74609375 89.69140625 C-85.72535294 90.56253555 -85.70461212 91.43366486 -85.6832428 92.33119202 C-85.57969777 96.76144548 -85.48322233 101.1917746 -85.39282227 105.62231445 C-85.35571675 107.27685738 -85.31852939 108.93139848 -85.28125 110.5859375 C-85.26770981 111.34455582 -85.25416962 112.10317413 -85.24021912 112.88478088 C-85.14360293 117.01726452 -84.75438578 120.93871264 -84 125 C-83.5123093 130.65962042 -83.23924432 136.3249841 -83 142 C-82.96455078 142.76554199 -82.92910156 143.53108398 -82.89257812 144.31982422 C-82.44781067 155.01466607 -83.27139413 163.84839424 -87 174 C-87.25007813 174.69351563 -87.50015625 175.38703125 -87.7578125 176.1015625 C-89.68607048 180.95545328 -92.40591945 185.47830228 -95 190 C-95.66 190 -96.32 190 -97 190 C-97.268125 190.804375 -97.53625 191.60875 -97.8125 192.4375 C-98.204375 193.283125 -98.59625 194.12875 -99 195 C-99.99 195.33 -100.98 195.66 -102 196 C-101.67 195.01 -101.34 194.02 -101 193 C-100.34 193 -99.68 193 -99 193 C-98.80639893 192.1184021 -98.80639893 192.1184021 -98.60888672 191.21899414 C-97.46350266 187.04481782 -95.10717278 183.25973631 -93.05859375 179.45898438 C-87.48443023 168.71473238 -86.56225933 158.75366912 -86.75 146.75 C-86.75515625 145.44675781 -86.7603125 144.14351562 -86.765625 142.80078125 C-86.81574171 136.47981158 -87.0191395 130.20283739 -87.48046875 123.8984375 C-88.20146124 113.90102267 -88.36647474 103.89429206 -88.5625 93.875 C-88.58367889 92.84850342 -88.60485779 91.82200684 -88.62667847 90.7644043 C-89.08691966 68.17621093 -89.10641054 45.59177714 -89 23 C-88.34 23 -87.68 23 -87 23 C-86.67 22.01 -86.34 21.02 -86 20 C-85.07767578 19.94392578 -85.07767578 19.94392578 -84.13671875 19.88671875 C-82.92435547 19.78810547 -82.92435547 19.78810547 -81.6875 19.6875 C-80.88699219 19.62949219 -80.08648437 19.57148438 -79.26171875 19.51171875 C-76.57128547 18.90300241 -75.83646627 17.99401834 -74 16 C-72.69022391 15.28816517 -71.35195831 14.62803737 -70 14 C-69.04609375 13.47664063 -68.0921875 12.95328125 -67.109375 12.4140625 C-66.00078125 11.82367188 -64.8921875 11.23328125 -63.75 10.625 C-62.67234375 10.03976562 -61.5946875 9.45453125 -60.484375 8.8515625 C-49.01757602 3.62620356 -36.03166065 2.21304206 -23.63183594 0.93432617 C-21.20854864 0.68320446 -18.78805559 0.41205047 -16.3671875 0.13867188 C-14.81262501 -0.02980332 -13.25794129 -0.19716459 -11.703125 -0.36328125 C-10.98650696 -0.44338943 -10.26988892 -0.52349762 -9.53155518 -0.60603333 C-6.13722455 -0.94733197 -3.24832995 -1.15467163 0 0 Z " fill="#45494C" transform="translate(352,248)"/>
<path d="M0 0 C0.75690345 2.27071034 1.06190566 3.71608783 0.546875 6.078125 C-1.62330278 17.67307484 -0.46725458 29.16084741 4 40 C4.35427852 41.28607955 4.69102187 42.57729186 5 43.875 C8.71614069 55.48793967 22.28259071 64.66656513 32.4765625 70.390625 C34.30707257 71.28258263 36.15216127 72.14451911 38 73 C38.99 73.99 38.99 73.99 40 75 C42.03393789 75.79730066 42.03393789 75.79730066 44.40234375 76.4375 C45.73942383 76.82035156 45.73942383 76.82035156 47.10351562 77.2109375 C48.03873047 77.47132813 48.97394531 77.73171875 49.9375 78 C50.83791016 78.26039063 51.73832031 78.52078125 52.66601562 78.7890625 C64.44756999 82.11918065 75.35806658 83.32595449 87.55151367 83.26074219 C89.92978499 83.25003473 92.30729859 83.26068418 94.68554688 83.2734375 C102.45297201 83.27960863 109.85248786 83.00379877 117.49731445 81.44091797 C121.36509567 80.75950026 125.08299615 80.8694332 129 81 C129 80.34 129 79.68 129 79 C129.60473145 78.80365967 130.20946289 78.60731934 130.83251953 78.4050293 C133.59828285 77.50402484 136.36163386 76.59582868 139.125 75.6875 C140.55199219 75.2244043 140.55199219 75.2244043 142.0078125 74.75195312 C146.89785798 73.13891729 151.40839075 71.35319974 156 69 C158.875 68.8125 158.875 68.8125 161 69 C148.01289852 83.29666155 116.2929692 85.95993152 98 87 C69.56381199 88.32763961 43.42243191 82.53348135 20 66 C19.21238281 65.45859375 18.42476562 64.9171875 17.61328125 64.359375 C16.81470703 63.68648438 16.81470703 63.68648438 16 63 C16 62.34 16 61.68 16 61 C14.515 60.505 14.515 60.505 13 60 C13 59.34 13 58.68 13 58 C11.515 57.505 11.515 57.505 10 57 C-1.58768617 43.20769605 -4.80805691 28.7584599 -4 11 C-3.52924738 7.88484574 -2.85303061 5.03892157 -2 2 C-1.34 2 -0.68 2 0 2 C0 1.34 0 0.68 0 0 Z " fill="#44494D" transform="translate(49,408)"/>
<path d="M0 0 C0 0.66 0 1.32 0 2 C-7.63825343 4.1200664 -15.30266896 6.10589236 -23 8 C-23 8.99 -23 9.98 -23 11 C-23.66 11 -24.32 11 -25 11 C-24.505 11.99 -24.505 11.99 -24 13 C-21.66752239 13.33926947 -19.33414529 13.67240066 -17 14 C-16.34 14.66 -15.68 15.32 -15 16 C-12.78927023 16.24253813 -12.78927023 16.24253813 -10.375 16.125 C-9.55773437 16.10695312 -8.74046875 16.08890625 -7.8984375 16.0703125 C-6.95871094 16.03550781 -6.95871094 16.03550781 -6 16 C-6 16.66 -6 17.32 -6 18 C-7.56116819 18.33951619 -9.12401338 18.67132544 -10.6875 19 C-11.55761719 19.185625 -12.42773438 19.37125 -13.32421875 19.5625 C-15.93712964 19.98972047 -18.35813038 20.07616201 -21 20 C-21 18.68 -21 17.36 -21 16 C-22.02673828 16.24556641 -22.02673828 16.24556641 -23.07421875 16.49609375 C-26.3743278 17.06447034 -29.46554069 17.09630767 -32.8125 17.0625 C-33.97394531 17.05347656 -35.13539063 17.04445312 -36.33203125 17.03515625 C-37.21246094 17.02355469 -38.09289062 17.01195312 -39 17 C-39 17.66 -39 18.32 -39 19 C-42.96 19.495 -42.96 19.495 -47 20 C-47 20.66 -47 21.32 -47 22 C-47.66 22 -48.32 22 -49 22 C-49.33 22.66 -49.66 23.32 -50 24 C-52.64 23.34 -55.28 22.68 -58 22 C-58 22.66 -58 23.32 -58 24 C-61.96 24.33 -65.92 24.66 -70 25 C-70.33 23.68 -70.66 22.36 -71 21 C-66.77050005 18.58314288 -63.87664009 17.65166856 -59 18 C-58.67 16.68 -58.34 15.36 -58 14 C-50.88178227 12.17040106 -43.76258432 10.34467041 -36.64210796 8.52388 C-33.33586469 7.67830471 -30.0299745 6.8313977 -26.72485352 5.98144531 C-22.92565341 5.00449661 -19.12498384 4.03334325 -15.32421875 3.0625 C-14.13664474 2.75626709 -12.94907074 2.45003418 -11.72550964 2.13452148 C-10.62459488 1.85423096 -9.52368011 1.57394043 -8.3894043 1.28515625 C-7.41899704 1.03644775 -6.44858978 0.78773926 -5.44877625 0.53149414 C-3 0 -3 0 0 0 Z " fill="#BCBEBF" transform="translate(386,203)"/>
<path d="M0 0 C2.64 0 5.28 0 8 0 C9.04542756 2.78780682 8.93713377 4.45233019 8.51953125 7.45703125 C7.94526707 11.72368369 7.97953067 15.87382283 8.06518555 20.171875 C8.24798338 29.38787004 7.99572471 38.36793329 6.6875 47.5 C6.56971191 48.34071045 6.45192383 49.1814209 6.33056641 50.04760742 C5.60986187 54.62329684 4.46161853 58.67488623 2.74243164 62.96777344 C1.38861176 66.67352704 0.65500969 70.51504189 -0.125 74.375 C-0.29676758 75.20555908 -0.46853516 76.03611816 -0.64550781 76.8918457 C-1.79322668 82.5853113 -2.61957775 88.19856065 -3 94 C-3.33 94 -3.66 94 -4 94 C-4.78609566 85.23200993 -5.10548512 76.66727598 -4.625 67.875 C-4.58189697 67.08246826 -4.53879395 66.28993652 -4.49438477 65.47338867 C-3.77112529 53.85796511 -3.77112529 53.85796511 -1.125 49.4375 C5.60856152 36.36357763 5.35303847 20.23208751 3 6 C2.60167969 7.58941406 2.60167969 7.58941406 2.1953125 9.2109375 C1.83890482 10.59905163 1.48211404 11.98706743 1.125 13.375 C0.95097656 14.07367188 0.77695312 14.77234375 0.59765625 15.4921875 C-0.7734375 20.7734375 -0.7734375 20.7734375 -3 23 C-2.86722656 22.42894531 -2.73445313 21.85789062 -2.59765625 21.26953125 C-1.05933154 14.20671195 -0.42935274 7.20860655 0 0 Z " fill="#828588" transform="translate(446,0)"/>
<path d="M0 0 C-12.98710148 14.29666155 -44.7070308 16.95993152 -63 18 C-78.4836025 18.72290435 -95.25414641 18.18307683 -110 13 C-110.66 12.34 -111.32 11.68 -112 11 C-109.47906702 11.311712 -106.9582543 11.62434902 -104.4375 11.9375 C-103.73302734 12.02451172 -103.02855469 12.11152344 -102.30273438 12.20117188 C-101.25375977 12.33168945 -101.25375977 12.33168945 -100.18359375 12.46484375 C-99.54993896 12.543396 -98.91628418 12.62194824 -98.26342773 12.70288086 C-96.42024697 12.94483437 -94.58249717 13.22788135 -92.74707031 13.52294922 C-88.7692258 14.02938056 -84.86524993 14.1617286 -80.86328125 14.16796875 C-80.10258835 14.17129715 -79.34189545 14.17462555 -78.55815125 14.17805481 C-76.95552163 14.18309062 -75.35288166 14.18546418 -73.75024414 14.18530273 C-71.33656889 14.18747831 -68.92335963 14.20563962 -66.50976562 14.22460938 C-58.67032406 14.25227882 -51.21030383 14.0295419 -43.49389648 12.44311523 C-39.6295845 11.75650474 -35.91429562 11.86952348 -32 12 C-32 11.34 -32 10.68 -32 10 C-31.39526855 9.80365967 -30.79053711 9.60731934 -30.16748047 9.4050293 C-27.40171715 8.50402484 -24.63836614 7.59582868 -21.875 6.6875 C-20.44800781 6.2244043 -20.44800781 6.2244043 -18.9921875 5.75195312 C-1.2265854 -0.10822812 -1.2265854 -0.10822812 0 0 Z " fill="#44535E" transform="translate(210,477)"/>
<path d="M0 0 C0 1.32 0 2.64 0 4 C0.969375 3.67 1.93875 3.34 2.9375 3 C7.29766837 1.73126248 11.49554566 1.81614472 16 2 C15.67 2.66 15.34 3.32 15 4 C12.87043578 4.28732216 10.73780183 4.5605809 8.59765625 4.75390625 C4.37140615 5.15428784 0.1921005 5.83946622 -4 6.5 C-4.85722656 6.63019531 -5.71445312 6.76039063 -6.59765625 6.89453125 C-7.41105469 7.02214844 -8.22445312 7.14976562 -9.0625 7.28125 C-9.79597656 7.39533203 -10.52945312 7.50941406 -11.28515625 7.62695312 C-13.02349261 7.84327986 -13.02349261 7.84327986 -14 9 C-15.68608966 9.07205511 -17.37500659 9.08386068 -19.0625 9.0625 C-19.98160156 9.05347656 -20.90070313 9.04445312 -21.84765625 9.03515625 C-22.55792969 9.02355469 -23.26820313 9.01195312 -24 9 C-24 9.66 -24 10.32 -24 11 C-32.415 11.495 -32.415 11.495 -41 12 C-39.68 11.67 -38.36 11.34 -37 11 C-36.67 9.68 -36.34 8.36 -36 7 C-32.60494113 6.02998318 -29.52935443 6 -26 6 C-26 5.34 -26 4.68 -26 4 C-23.36 3.67 -20.72 3.34 -18 3 C-18 2.34 -18 1.68 -18 1 C-15.93769732 0.8309093 -13.8751477 0.66482867 -11.8125 0.5 C-10.08966797 0.36078125 -10.08966797 0.36078125 -8.33203125 0.21875 C-5.53927574 0.0354038 -2.79680188 -0.04213637 0 0 Z " fill="#C0C0C0" transform="translate(365,219)"/>
<path d="M0 0 C0.33 0 0.66 0 1 0 C1.08302368 1.13429443 1.08302368 1.13429443 1.16772461 2.29150391 C1.42147068 5.73621904 1.67944491 9.1806051 1.9375 12.625 C2.02451172 13.81480469 2.11152344 15.00460937 2.20117188 16.23046875 C2.28818359 17.38417969 2.37519531 18.53789062 2.46484375 19.7265625 C2.543396 20.78439941 2.62194824 21.84223633 2.70288086 22.93212891 C2.99895299 25.98918917 3.48131962 28.97384369 4 32 C4.4876907 37.65962042 4.76075568 43.3249841 5 49 C5.05317383 50.14831299 5.05317383 50.14831299 5.10742188 51.31982422 C5.55218933 62.01466607 4.72860587 70.84839424 1 81 C0.74992187 81.69351563 0.49984375 82.38703125 0.2421875 83.1015625 C-1.68607048 87.95545328 -4.40591945 92.47830228 -7 97 C-7.66 97 -8.32 97 -9 97 C-9.268125 97.804375 -9.53625 98.60875 -9.8125 99.4375 C-10.4003125 100.7059375 -10.4003125 100.7059375 -11 102 C-12.485 102.495 -12.485 102.495 -14 103 C-13.67 102.01 -13.34 101.02 -13 100 C-12.34 100 -11.68 100 -11 100 C-10.87093262 99.41226807 -10.74186523 98.82453613 -10.60888672 98.21899414 C-9.46350266 94.04481782 -7.10717278 90.25973631 -5.05859375 86.45898438 C0.51556977 75.71473238 1.43774067 65.75366912 1.25 53.75 C1.24484375 52.44675781 1.2396875 51.14351563 1.234375 49.80078125 C1.17274006 42.02707421 0.78061082 34.32267639 0.21826172 26.57080078 C-0.10811061 21.23129101 -0.10862838 15.90984356 -0.0625 10.5625 C-0.05798828 9.53318359 -0.05347656 8.50386719 -0.04882812 7.44335938 C-0.03728772 4.96217174 -0.02101824 2.48112218 0 0 Z " fill="#515C67" transform="translate(264,341)"/>
<path d="M0 0 C-3 2 -3 2 -6 2 C-6 2.66 -6 3.32 -6 4 C-7.98 4.66 -9.96 5.32 -12 6 C-10.02 6 -8.04 6 -6 6 C-5.67 7.65 -5.34 9.3 -5 11 C-3.68 11.33 -2.36 11.66 -1 12 C0.00821159 14.68856424 0.22736824 16.41703215 -0.82421875 19.11328125 C-1.83395302 21.10794931 -2.88106647 23.0646772 -4 25 C-5 23 -5 23 -4.5 19.5625 C-3.73714606 16.04687076 -3.73714606 16.04687076 -5 13 C-5.62648438 13.09539062 -6.25296875 13.19078125 -6.8984375 13.2890625 C-7.71570313 13.39992187 -8.53296875 13.51078125 -9.375 13.625 C-10.18710937 13.74101562 -10.99921875 13.85703125 -11.8359375 13.9765625 C-12.55007813 13.98429688 -13.26421875 13.99203125 -14 14 C-14.66 13.34 -15.32 12.68 -16 12 C-18.32275177 11.59952556 -20.65739357 11.2602896 -23 11 C-23.33 10.01 -23.66 9.02 -24 8 C-23.34 8 -22.68 8 -22 8 C-22 7.01 -22 6.02 -22 5 C-19.08919272 3.96189556 -16.17062342 2.94762359 -13.25 1.9375 C-12.425 1.64294922 -11.6 1.34839844 -10.75 1.04492188 C-9.95078125 0.77099609 -9.1515625 0.49707031 -8.328125 0.21484375 C-7.5949707 -0.04176025 -6.86181641 -0.29836426 -6.10644531 -0.56274414 C-3.72635182 -1.05680388 -2.28425328 -0.76066537 0 0 Z " fill="#3B3B3C" transform="translate(385,206)"/>
<path d="M0 0 C0.99 0 1.98 0 3 0 C4.04542756 2.78780682 3.93713377 4.45233019 3.51953125 7.45703125 C2.94526707 11.72368369 2.97953067 15.87382283 3.06518555 20.171875 C3.24798338 29.38787004 2.99572471 38.36793329 1.6875 47.5 C1.56971191 48.34071045 1.45192383 49.1814209 1.33056641 50.04760742 C0.6047915 54.65548816 -0.54947314 58.75593088 -2.28442383 63.08007812 C-3.42791567 66.14811629 -4.04062198 69.29641359 -4.6875 72.5 C-5.06455078 74.34078125 -5.06455078 74.34078125 -5.44921875 76.21875 C-5.72185547 77.59546875 -5.72185547 77.59546875 -6 79 C-6.33 79 -6.66 79 -7 79 C-7.09579384 70.92138585 -7.12513633 63.01659634 -6 55 C-5.34 55 -4.68 55 -4 55 C-3.87625 54.484375 -3.7525 53.96875 -3.625 53.4375 C-3.13030177 51.50817692 -2.57562097 49.59424445 -2 47.6875 C-0.23219158 41.16870644 0.14239563 34.92496399 0.09765625 28.22265625 C0.09553383 27.00563271 0.09553383 27.00563271 0.09336853 25.76402283 C0.08781357 23.19680953 0.07526967 20.62968652 0.0625 18.0625 C0.05747917 16.31185023 0.05291729 14.56119907 0.04882812 12.81054688 C0.03785893 8.5403303 0.02062582 4.27018041 0 0 Z " fill="#2D2D2D" transform="translate(451,0)"/>
<path d="M0 0 C0.94767995 3.11952144 1.0331527 5.65368593 0.765625 8.89453125 C0.68812012 9.84247559 0.61061523 10.79041992 0.53076172 11.76708984 C-1.16504924 30.16147753 -4.40317301 45.15738523 -13.33984375 61.44140625 C-16.35821876 67.26174447 -16.79795431 73.25257967 -17.31787109 79.70678711 C-17.38055176 80.45968018 -17.44323242 81.21257324 -17.5078125 81.98828125 C-17.57959717 83.00208862 -17.57959717 83.00208862 -17.65283203 84.03637695 C-18.05263004 86.29768174 -18.89192093 88.00015452 -20 90 C-19.94757979 86.18642951 -19.85237969 82.37503056 -19.75 78.5625 C-19.73582031 77.49322266 -19.72164063 76.42394531 -19.70703125 75.32226562 C-19.49456776 68.3747096 -18.38792002 63.09650165 -15 57 C-14.34 57 -13.68 57 -13 57 C-10.95698846 52.47618873 -9.99043705 47.83628305 -9 43 C-8.34 43 -7.68 43 -7 43 C-6.93941406 42.36191406 -6.87882812 41.72382812 -6.81640625 41.06640625 C-6.73261719 40.24011719 -6.64882813 39.41382813 -6.5625 38.5625 C-6.48128906 37.73878906 -6.40007812 36.91507813 -6.31640625 36.06640625 C-6 34 -6 34 -5 33 C-4.64100302 30.82226098 -4.33960769 28.63497854 -4.0625 26.4453125 C-3.97750244 25.78796112 -3.89250488 25.13060974 -3.80493164 24.45333862 C-3.53258696 22.34438673 -3.26582213 20.23478325 -3 18.125 C-2.73375331 16.0224201 -2.46624356 13.92003492 -2.19506836 11.81808472 C-1.94846204 9.90533718 -1.70654358 7.99198701 -1.46484375 6.07861328 C-1 3 -1 3 0 0 Z " fill="#2D2D2D" transform="translate(444,81)"/>
<path d="M0 0 C0 0.66 0 1.32 0 2 C-7.63825343 4.1200664 -15.30266896 6.10589236 -23 8 C-23 8.99 -23 9.98 -23 11 C-23.66 11 -24.32 11 -25 11 C-24.67 11.66 -24.34 12.32 -24 13 C-21.66752239 13.33926947 -19.33414529 13.67240066 -17 14 C-16.34 14.66 -15.68 15.32 -15 16 C-12.78927023 16.24253813 -12.78927023 16.24253813 -10.375 16.125 C-9.55773437 16.10695312 -8.74046875 16.08890625 -7.8984375 16.0703125 C-6.95871094 16.03550781 -6.95871094 16.03550781 -6 16 C-6 16.66 -6 17.32 -6 18 C-7.56116819 18.33951619 -9.12401338 18.67132544 -10.6875 19 C-11.55761719 19.185625 -12.42773438 19.37125 -13.32421875 19.5625 C-15.93712964 19.98972047 -18.35813038 20.07616201 -21 20 C-21 18.68 -21 17.36 -21 16 C-22.98 16 -24.96 16 -27 16 C-27 15.34 -27 14.68 -27 14 C-29.64 14 -32.28 14 -35 14 C-35.33 13.01 -35.66 12.02 -36 11 C-35.0925 11.103125 -34.185 11.20625 -33.25 11.3125 C-32.1775 11.209375 -31.105 11.10625 -30 11 C-29.51144531 10.236875 -29.02289063 9.47375 -28.51953125 8.6875 C-24.61578835 4.52350757 -19.87492646 3.95256116 -14.4375 2.6875 C-13.38369141 2.42388672 -12.32988281 2.16027344 -11.24414062 1.88867188 C-3.55700081 0 -3.55700081 0 0 0 Z " fill="#8D9194" transform="translate(386,203)"/>
<path d="M0 0 C0.33 0 0.66 0 1 0 C0.88566637 2.25056722 0.75813564 4.50046674 0.625 6.75 C0.55539062 8.00296875 0.48578125 9.2559375 0.4140625 10.546875 C0.03865111 13.67766431 -0.47507347 15.33137857 -2 18 C-2.38290462 19.99110401 -2.72604615 21.99100513 -3 24 C-3.66 24 -4.32 24 -5 24 C-5.03738281 24.59167969 -5.07476562 25.18335937 -5.11328125 25.79296875 C-5.50789945 30.53612478 -5.90779798 34.1656695 -9 38 C-9.66 38 -10.32 38 -11 38 C-11.103125 38.721875 -11.20625 39.44375 -11.3125 40.1875 C-12.06705709 43.27432446 -13.35241423 45.29795933 -15 48 C-15.71143088 49.98451771 -16.38991336 51.98202112 -17 54 C-18.10844919 50.67465243 -17.84454356 48.37817425 -17 45 C-16.01 45 -15.02 45 -14 45 C-13.91363281 44.0821875 -13.82726562 43.164375 -13.73828125 42.21875 C-12.96142677 35.43374575 -12.19605848 30.335028 -8.16015625 24.78125 C-6.5685735 22.3376078 -6.11128056 19.97218021 -5.53125 17.14453125 C-4.69007919 13.74892262 -3.27649688 10.60434553 -1.90234375 7.39453125 C-0.97781307 4.941123 -0.44447509 2.57978839 0 0 Z " fill="#7A7A7A" transform="translate(440,100)"/>
<path d="M0 0 C-5.75358773 7.0230626 -18.27701023 8.51213634 -26.76953125 9.8359375 C-27.87361328 9.91714844 -27.87361328 9.91714844 -29 10 C-29.33 9.67 -29.66 9.34 -30 9 C-31.51469448 8.76807135 -33.03754562 8.58784762 -34.5625 8.4375 C-35.38878906 8.35371094 -36.21507812 8.26992187 -37.06640625 8.18359375 C-37.70449219 8.12300781 -38.34257812 8.06242188 -39 8 C-39 7.34 -39 6.68 -39 6 C-38.28972656 5.93941406 -37.57945312 5.87882813 -36.84765625 5.81640625 C-35.46900391 5.69072266 -35.46900391 5.69072266 -34.0625 5.5625 C-33.14597656 5.48128906 -32.22945313 5.40007812 -31.28515625 5.31640625 C-29.03840268 5.23955024 -29.03840268 5.23955024 -28 4 C-26.63727537 3.71666305 -25.26337581 3.48646596 -23.88671875 3.28125 C-23.05076172 3.15363281 -22.21480469 3.02601563 -21.35351562 2.89453125 C-20.47373047 2.76433594 -19.59394531 2.63414062 -18.6875 2.5 C-16.96199069 2.24123765 -15.23672027 1.98087609 -13.51171875 1.71875 C-12.74303467 1.60466797 -11.97435059 1.49058594 -11.18237305 1.37304688 C-8.9995736 1.03047279 -8.9995736 1.03047279 -6.88989258 0.45898438 C-4.5576273 -0.10743582 -2.39053615 -0.06640378 0 0 Z " fill="#D8DADC" transform="translate(380,222)"/>
<path d="M0 0 C0.33 0.66 0.66 1.32 1 2 C2.98 1.67 4.96 1.34 7 1 C6.75 3.375 6.75 3.375 6 6 C2.88390372 8.42363044 -0.17372685 8.17392151 -4 8 C-4 8.99 -4 9.98 -4 11 C-9.94 11.495 -9.94 11.495 -16 12 C-16.33 10.68 -16.66 9.36 -17 8 C-12.77050005 5.58314288 -9.87664009 4.65166856 -5 5 C-4.67 3.68 -4.34 2.36 -4 1 C-2.68 0.67 -1.36 0.34 0 0 Z " fill="#B9BABB" transform="translate(332,216)"/>
<path d="M0 0 C0.33 0 0.66 0 1 0 C1.33 2.97 1.66 5.94 2 9 C2.99 9 3.98 9 5 9 C5.33 8.01 5.66 7.02 6 6 C6 6.99 6 7.98 6 9 C7.65 9 9.3 9 11 9 C11.33 9.66 11.66 10.32 12 11 C10.865625 11.12375 9.73125 11.2475 8.5625 11.375 C6.7990625 11.684375 6.7990625 11.684375 5 12 C4.67 12.66 4.34 13.32 4 14 C3.34 14 2.68 14 2 14 C2.03029297 15.23226318 2.06058594 16.46452637 2.09179688 17.73413086 C3.191407 62.83889319 3.191407 62.83889319 3 84 C2.67 84 2.34 84 2 84 C1.73355223 76.88697986 1.47254203 69.77377945 1.21769714 62.66033363 C1.09909134 59.35402128 0.978373 56.04782045 0.85449219 52.74169922 C0.19683792 35.15280287 -0.14695372 17.60138168 0 0 Z " fill="#647C8D" transform="translate(261,257)"/>
<path d="M0 0 C0.66 0.33 1.32 0.66 2 1 C2.33 1.99 2.66 2.98 3 4 C-2.625 7 -2.625 7 -6 7 C-6 7.66 -6 8.32 -6 9 C-11.83712355 11.72399099 -17.76559832 13.41039668 -24 15 C-24 14.34 -24 13.68 -24 13 C-24.66 12.67 -25.32 12.34 -26 12 C-22.60539735 10.37242007 -19.20910606 8.74839434 -15.8125 7.125 C-14.37293945 6.43470703 -14.37293945 6.43470703 -12.90429688 5.73046875 C-11.97294922 5.28574219 -11.04160156 4.84101563 -10.08203125 4.3828125 C-9.22843018 3.97434082 -8.3748291 3.56586914 -7.49536133 3.14501953 C-2.51327939 0.85894534 -2.51327939 0.85894534 0 0 Z " fill="#E2E4E7" transform="translate(333,179)"/>
<path d="M0 0 C-6.04509333 3.09853248 -11.52234811 3.64585924 -18.25 4.0625 C-25.14525524 4.52370581 -31.82830276 5.2091432 -38.61010742 6.57104492 C-41.86021577 7.1543977 -44.70844057 7.28013272 -48 7 C-48.66 6.34 -49.32 5.68 -50 5 C-39.08985315 2.96517102 -28.15712095 1.46449979 -17.125 0.25 C-15.89491211 0.11037842 -14.66482422 -0.02924316 -13.39746094 -0.1730957 C-11.65770996 -0.35811646 -11.65770996 -0.35811646 -9.8828125 -0.546875 C-8.84527832 -0.65870117 -7.80774414 -0.77052734 -6.73876953 -0.88574219 C-4.21073413 -0.99120845 -2.38950957 -0.77339197 0 0 Z " fill="#525A61" transform="translate(352,248)"/>
<path d="M0 0 C0.75690345 2.27071034 1.06190566 3.71608783 0.546875 6.078125 C-1.42042493 16.5891275 -0.93528175 27.89414697 3.22265625 37.75 C4 40 4 40 3 43 C0 37.25 0 37.25 0 35 C-0.66 35 -1.32 35 -2 35 C-5.05502272 24.11648157 -5.05502272 12.88351843 -2 2 C-1.34 2 -0.68 2 0 2 C0 1.34 0 0.68 0 0 Z " fill="#6C7073" transform="translate(49,408)"/>
<path d="M0 0 C0.66 0.33 1.32 0.66 2 1 C-14.41120193 19.63107466 -14.41120193 19.63107466 -22 24 C-23.36984198 25.29579647 -24.7151049 26.61992749 -26 28 C-24.65686815 24.21908383 -22.97035316 21.34348084 -20.5 18.1875 C-19.8915625 17.39730469 -19.283125 16.60710937 -18.65625 15.79296875 C-18.1096875 15.20128906 -17.563125 14.60960937 -17 14 C-16.34 14 -15.68 14 -15 14 C-14.67 13.01 -14.34 12.02 -14 11 C-12.60131836 9.6496582 -12.60131836 9.6496582 -10.83984375 8.30078125 C-10.21142578 7.81416016 -9.58300781 7.32753906 -8.93554688 6.82617188 C-8.27619141 6.32666016 -7.61683594 5.82714844 -6.9375 5.3125 C-6.27427734 4.80138672 -5.61105469 4.29027344 -4.92773438 3.76367188 C-3.2899169 2.50290591 -1.64556863 1.25063216 0 0 Z " fill="#374C59" transform="translate(85,359)"/>
<path d="M0 0 C0.33 0.66 0.66 1.32 1 2 C-0.30141722 4.92818875 -1.69867131 7.57813984 -3.5625 10.1875 C-5.43671685 13.85444601 -5.93833686 17.42970094 -6.5703125 21.4765625 C-7 24 -7 24 -8 27 C-8.99 27 -9.98 27 -11 27 C-11.33 30.63 -11.66 34.26 -12 38 C-12.33 38 -12.66 38 -13 38 C-14.87443946 29.68430493 -14.87443946 29.68430493 -12.73046875 25.5546875 C-11.23570767 23.60134633 -9.7062021 21.77049377 -8 20 C-8.99 20 -9.98 20 -11 20 C-12 17 -12 17 -10.85546875 14.70703125 C-8.75246492 11.63885935 -6.56616913 8.64566538 -4.3125 5.6875 C-3.89677734 5.13771484 -3.48105469 4.58792969 -3.05273438 4.02148438 C-2.03735842 2.67932075 -1.01898747 1.33942378 0 0 Z " fill="#E1E2E3" transform="translate(434,118)"/>
<path d="M0 0 C0.85078125 0.00322266 1.7015625 0.00644531 2.578125 0.00976562 C3.46757812 0.01814453 4.35703125 0.02652344 5.2734375 0.03515625 C6.170625 0.03966797 7.0678125 0.04417969 7.9921875 0.04882812 C10.21100398 0.06063034 12.42968768 0.0770947 14.6484375 0.09765625 C14.6484375 0.75765625 14.6484375 1.41765625 14.6484375 2.09765625 C11.52513297 2.75186807 8.39953148 3.39441784 5.2734375 4.03515625 C4.40332031 4.21755859 3.53320312 4.39996094 2.63671875 4.58789062 C-3.34347752 5.80607875 -9.26869843 6.60726115 -15.3515625 7.09765625 C-15.3515625 5.77765625 -15.3515625 4.45765625 -15.3515625 3.09765625 C-12.7115625 3.42765625 -10.0715625 3.75765625 -7.3515625 4.09765625 C-7.0215625 3.10765625 -6.6915625 2.11765625 -6.3515625 1.09765625 C-4.00303722 -0.07660639 -2.61382185 -0.01742548 0 0 Z " fill="#EAEBED" transform="translate(336.3515625,229.90234375)"/>
<path d="M0 0 C-2.2122168 2.4707535 -4.17965922 3.70257854 -7.24609375 4.9375 C-8.07753906 5.27394531 -8.90898437 5.61039062 -9.765625 5.95703125 C-10.64734375 6.30121094 -11.5290625 6.64539063 -12.4375 7 C-13.34113281 7.35449219 -14.24476563 7.70898438 -15.17578125 8.07421875 C-25.97731744 12.23698843 -35.35192984 14.55762038 -47 14 C-47 13.67 -47 13.34 -47 13 C-41.94997778 11.96409801 -37.12583611 11.89748328 -32 12 C-32 11.34 -32 10.68 -32 10 C-31.09290283 9.7054895 -31.09290283 9.7054895 -30.16748047 9.4050293 C-27.40171715 8.50402484 -24.63836614 7.59582868 -21.875 6.6875 C-20.92367187 6.37876953 -19.97234375 6.07003906 -18.9921875 5.75195312 C-1.2265854 -0.10822812 -1.2265854 -0.10822812 0 0 Z " fill="#4F575D" transform="translate(210,477)"/>
<path d="M0 0 C0.33 0 0.66 0 1 0 C3.38776806 39.05842411 3.38776806 39.05842411 3 55 C1.35 54.34 -0.3 53.68 -2 53 C-1.34 52.34 -0.68 51.68 0 51 C0.29231539 48.73572626 0.29231539 48.73572626 0.22705078 46.09130859 C0.22689972 45.07040131 0.22674866 44.04949402 0.22659302 42.99765015 C0.21627045 41.89240997 0.20594788 40.7871698 0.1953125 39.6484375 C0.19106766 37.95468491 0.19106766 37.95468491 0.18673706 36.22671509 C0.17551462 32.60937029 0.15040622 28.99227034 0.125 25.375 C0.11497287 22.9270869 0.10584656 20.47916993 0.09765625 18.03125 C0.07556857 12.02074936 0.04207074 6.01039217 0 0 Z " fill="#8D99A2" transform="translate(228,290)"/>
<path d="M0 0 C-3.88571346 1.73616984 -7.66989081 3.22214833 -11.75 4.4375 C-15.2923208 5.5720082 -17.2212092 6.56100445 -19 10 C-16.69 10 -14.38 10 -12 10 C-12 10.66 -12 11.32 -12 12 C-10.02 12 -8.04 12 -6 12 C-8.51796153 13.58538318 -9.67865586 14.0373656 -12.6875 13.6875 C-15 13 -15 13 -16 12 C-18.32817964 11.63239269 -20.6618385 11.29758419 -23 11 C-23.33 10.01 -23.66 9.02 -24 8 C-23.34 8 -22.68 8 -22 8 C-22 7.01 -22 6.02 -22 5 C-19.08919272 3.96189556 -16.17062342 2.94762359 -13.25 1.9375 C-12.425 1.64294922 -11.6 1.34839844 -10.75 1.04492188 C-9.95078125 0.77099609 -9.1515625 0.49707031 -8.328125 0.21484375 C-7.5949707 -0.04176025 -6.86181641 -0.29836426 -6.10644531 -0.56274414 C-3.72635182 -1.05680388 -2.28425328 -0.76066537 0 0 Z " fill="#4A4A4A" transform="translate(385,206)"/>
<path d="M0 0 C2 2 2 2 2.125 5.125 C2.08375 6.07375 2.0425 7.0225 2 8 C3.32 8 4.64 8 6 8 C6.99 9.98 7.98 11.96 9 14 C8.38511719 13.855625 7.77023437 13.71125 7.13671875 13.5625 C6.32847656 13.376875 5.52023437 13.19125 4.6875 13 C3.88699219 12.814375 3.08648437 12.62875 2.26171875 12.4375 C-0.10695938 11.90504177 -0.10695938 11.90504177 -3 12 C-3.33 12.99 -3.66 13.98 -4 15 C-4 11.04 -4 7.08 -4 3 C-3.01 2.67 -2.02 2.34 -1 2 C-0.67 1.34 -0.34 0.68 0 0 Z " fill="#DFDFDF" transform="translate(266,254)"/>
<path d="M0 0 C-0.67466309 0.19110352 -1.34932617 0.38220703 -2.04443359 0.57910156 C-5.15620997 1.46392147 -8.26558762 2.35690969 -11.375 3.25 C-12.43589844 3.55035156 -13.49679688 3.85070312 -14.58984375 4.16015625 C-20.59385292 5.89137362 -26.34100746 7.83064212 -32.06103516 10.35449219 C-34 11 -34 11 -36 10 C-31.65500496 3.48250745 -20.94304884 2.0599327 -13.49267578 0.53320312 C-12.79384277 0.39849609 -12.09500977 0.26378906 -11.375 0.125 C-10.36348877 -0.07319336 -10.36348877 -0.07319336 -9.33154297 -0.27539062 C-5.87250968 -0.88699035 -3.35158193 -0.98231287 0 0 Z " fill="#5C666F" transform="translate(146,336)"/>
<path d="M0 0 C0.33 0 0.66 0 1 0 C1 5.28 1 10.56 1 16 C-3 18 -3 18 -6.05859375 17.13671875 C-7.17363281 16.65847656 -8.28867188 16.18023437 -9.4375 15.6875 C-13.30476382 14.05186698 -16.8440737 12.66028736 -21 12 C-21 11.34 -21 10.68 -21 10 C-21.66 9.67 -22.32 9.34 -23 9 C-17.88732773 9.4564886 -13.74241924 10.27646862 -9.0546875 12.37890625 C-6.40052824 13.28935072 -6.40052824 13.28935072 -1 13 C-0.67 8.71 -0.34 4.42 0 0 Z " fill="#50555B" transform="translate(228,325)"/>
<path d="M0 0 C3.96 0 7.92 0 12 0 C11.67 0.99 11.34 1.98 11 3 C10.04287109 3.09087891 10.04287109 3.09087891 9.06640625 3.18359375 C8.24011719 3.26738281 7.41382813 3.35117188 6.5625 3.4375 C5.32693359 3.55931641 5.32693359 3.55931641 4.06640625 3.68359375 C2.01337975 3.78930815 2.01337975 3.78930815 1 5 C-0.99958364 5.04080783 -3.00045254 5.04254356 -5 5 C-5 5.66 -5 6.32 -5 7 C-6.65 7 -8.3 7 -10 7 C-10 6.34 -10 5.68 -10 5 C-9.34 5 -8.68 5 -8 5 C-8 4.34 -8 3.68 -8 3 C-5.36 2.67 -2.72 2.34 0 2 C0 1.34 0 0.68 0 0 Z " fill="#D7D7D7" transform="translate(347,220)"/>
<path d="M0 0 C1.66328702 5.07390236 -0.01892264 9.52596526 -1.25 14.5625 C-1.46785156 15.52091797 -1.68570313 16.47933594 -1.91015625 17.46679688 C-2.24080078 18.84641602 -2.24080078 18.84641602 -2.578125 20.25390625 C-2.77825195 21.09252197 -2.97837891 21.9311377 -3.18457031 22.79516602 C-4.07136964 25.19297582 -5.07263554 26.35640494 -7 28 C-7.32784311 21.95949073 -6.13093049 16.85891514 -4.5 11.0625 C-4.26152344 10.18787109 -4.02304688 9.31324219 -3.77734375 8.41210938 C-3.19273616 6.27244561 -2.60015656 4.13534428 -2 2 C-1.34 2 -0.68 2 0 2 C0 1.34 0 0.68 0 0 Z " fill="#545D63" transform="translate(235,179)"/>
<path d="M0 0 C1.16464378 3.36536678 0.89659716 4.99911512 -0.625 8.1875 C-0.99367188 8.96351563 -1.36234375 9.73953125 -1.7421875 10.5390625 C-3.72516422 14.41879955 -5.82305861 18.22604014 -8 22 C-8.66 22 -9.32 22 -10 22 C-10.4021875 23.2065625 -10.4021875 23.2065625 -10.8125 24.4375 C-11.204375 25.283125 -11.59625 26.12875 -12 27 C-12.99 27.33 -13.98 27.66 -15 28 C-14.505 26.515 -14.505 26.515 -14 25 C-13.34 25 -12.68 25 -12 25 C-11.87238281 24.41806885 -11.74476563 23.8361377 -11.61328125 23.23657227 C-11.01067781 21.03894084 -10.22607481 19.23794402 -9.1875 17.21484375 C-8.83429688 16.51939453 -8.48109375 15.82394531 -8.1171875 15.10742188 C-7.74851562 14.39134766 -7.37984375 13.67527344 -7 12.9375 C-6.26901895 11.51004225 -5.53978116 10.08169012 -4.8125 8.65234375 C-4.48894531 8.02320068 -4.16539062 7.39405762 -3.83203125 6.74584961 C-2.87518486 4.83001068 -2.87518486 4.83001068 -2 2 C-1.34 2 -0.68 2 0 2 C0 1.34 0 0.68 0 0 Z " fill="#5A646C" transform="translate(265,416)"/>
<path d="M0 0 C1.41003254 4.23009761 0.92684454 8.08688004 0.6875 12.5 C0.65205078 13.36753906 0.61660156 14.23507813 0.58007812 15.12890625 C0.51530273 16.37994141 0.51530273 16.37994141 0.44921875 17.65625 C0.41143311 18.41744141 0.37364746 19.17863281 0.3347168 19.96289062 C0 22 0 22 -2 25 C-2.09087891 23.82244141 -2.09087891 23.82244141 -2.18359375 22.62109375 C-2.26738281 21.57050781 -2.35117187 20.51992187 -2.4375 19.4375 C-2.52257812 18.34050781 -2.60765625 17.24351563 -2.6953125 16.11328125 C-2.95728252 12.85352315 -2.95728252 12.85352315 -3.8125 9.125 C-4.06243555 4.95940749 -2.55978887 3.18034375 0 0 Z " fill="#D4D5D6" transform="translate(442,56)"/>
<path d="M0 0 C1.65 0 3.3 0 5 0 C6.29676812 4.61073111 5.71109139 8.33840089 5 13 C4.67 13 4.34 13 4 13 C3.67 10.69 3.34 8.38 3 6 C2.60167969 7.58941406 2.60167969 7.58941406 2.1953125 9.2109375 C1.83890482 10.59905163 1.48211404 11.98706743 1.125 13.375 C0.95097656 14.07367188 0.77695312 14.77234375 0.59765625 15.4921875 C-0.7734375 20.7734375 -0.7734375 20.7734375 -3 23 C-2.86722656 22.42894531 -2.73445313 21.85789062 -2.59765625 21.26953125 C-1.05933154 14.20671195 -0.42935274 7.20860655 0 0 Z " fill="#929AA1" transform="translate(446,0)"/>
<path d="M0 0 C0.33 0 0.66 0 1 0 C1.73588952 7.653251 -0.83868107 13.1222496 -4 20 C-4.60869012 21.414729 -5.21381738 22.83100707 -5.8125 24.25 C-6.204375 25.1575 -6.59625 26.065 -7 27 C-8.10844919 23.67465243 -7.84454356 21.37817425 -7 18 C-6.01 18 -5.02 18 -4 18 C-3.87882812 17.03578125 -3.75765625 16.0715625 -3.6328125 15.078125 C-3.46523438 13.81484375 -3.29765625 12.5515625 -3.125 11.25 C-2.96257812 9.99703125 -2.80015625 8.7440625 -2.6328125 7.453125 C-2.0941645 4.51383592 -1.51991159 2.52892853 0 0 Z " fill="#AFAFAF" transform="translate(430,127)"/>
<path d="M0 0 C0 2.99617979 -0.44453205 4.4942682 -1.53125 7.23046875 C-1.84707031 8.03291016 -2.16289063 8.83535156 -2.48828125 9.66210938 C-2.82214844 10.49548828 -3.15601563 11.32886719 -3.5 12.1875 C-3.83386719 13.03248047 -4.16773438 13.87746094 -4.51171875 14.74804688 C-5.33662236 16.83387456 -6.16619954 18.9177164 -7 21 C-7.66 21 -8.32 21 -9 21 C-9.33 21.66 -9.66 22.32 -10 23 C-9.51869135 17.20925533 -7.84218597 13.15348288 -5 8.125 C-4.63132812 7.44953125 -4.26265625 6.7740625 -3.8828125 6.078125 C-1.19747489 1.19747489 -1.19747489 1.19747489 0 0 Z " fill="#484C4F" transform="translate(58,387)"/>
<path d="M0 0 C0.33 0.66 0.66 1.32 1 2 C-0.98 2.66 -2.96 3.32 -5 4 C-3.02 4 -1.04 4 1 4 C1.33 5.65 1.66 7.3 2 9 C0.02 9 -1.96 9 -4 9 C-4 8.34 -4 7.68 -4 7 C-5.32 7 -6.64 7 -8 7 C-7.42655063 4.13275314 -7.1385485 3.1385485 -5 1 C-2.375 0.375 -2.375 0.375 0 0 Z " fill="#1C1C1C" transform="translate(378,208)"/>
<path d="M0 0 C0.33 0.99 0.66 1.98 1 3 C-5.40633755 10.41722351 -11.57058324 16.80704043 -20 22 C-20.66 21.67 -21.32 21.34 -22 21 C-21.16597656 20.40574219 -20.33195312 19.81148437 -19.47265625 19.19921875 C-11.71780591 13.53518782 -5.72748091 7.78463814 0 0 Z " fill="#333333" transform="translate(436,31)"/>
<path d="M0 0 C2.00720923 0.28674418 4.0085944 0.61866701 6 1 C6 1.99 6 2.98 6 4 C7.65 4 9.3 4 11 4 C11 4.33 11 4.66 11 5 C2.585 5.495 2.585 5.495 -6 6 C-4.68 5.67 -3.36 5.34 -2 5 C-1.855625 4.360625 -1.71125 3.72125 -1.5625 3.0625 C-1 1 -1 1 0 0 Z " fill="#CDCDCD" transform="translate(330,225)"/>
<path d="M0 0 C0.66 0.33 1.32 0.66 2 1 C1.56429688 1.35191406 1.12859375 1.70382813 0.6796875 2.06640625 C-3.17511251 5.26205215 -6.45807814 8.53713744 -9.54296875 12.484375 C-11.20344716 14.21162868 -12.81744776 15.04659388 -15 16 C-14.51262244 11.8047304 -12.28936359 10.12154302 -9.1875 7.4375 C-7.87845703 6.29087891 -7.87845703 6.29087891 -6.54296875 5.12109375 C-4.40638141 3.3389633 -2.24688114 1.63933286 0 0 Z " fill="#414A52" transform="translate(285,109)"/>
<path d="M0 0 C0.33 0 0.66 0 1 0 C0.91297874 2.27155498 0.80480478 4.54230743 0.6875 6.8125 C0.62949219 8.07707031 0.57148438 9.34164062 0.51171875 10.64453125 C-0.02483642 14.16285868 -0.36778922 14.85125651 -3 17 C-4.20049407 20.10007201 -4.20049407 20.10007201 -5 23 C-6.87058204 17.38825389 -4.14523228 12.69466418 -1.9375 7.5 C-1.00249669 5.00665785 -0.44920549 2.62036533 0 0 Z " fill="#A1A5A9" transform="translate(440,100)"/>
<path d="M0 0 C0.66 0.33 1.32 0.66 2 1 C-2.07443108 5.07443108 -6.22112105 6.05025478 -11.671875 7.2890625 C-12.82429688 7.64097656 -12.82429688 7.64097656 -14 8 C-14.33 8.66 -14.66 9.32 -15 10 C-14.49396008 7.83125748 -14.00016187 6.00032373 -13 4 C-10.8203125 3.4375 -10.8203125 3.4375 -8.125 3 C-4.61979783 2.4277221 -3.02930724 2.01953816 0 0 Z " fill="#272727" transform="translate(280,266)"/>
<path d="M0 0 C0.33 0 0.66 0 1 0 C1.20192308 17.02884615 1.20192308 17.02884615 0 24 C-0.66 24.33 -1.32 24.66 -2 25 C-2.05421223 21.95809137 -2.09377548 18.91716001 -2.125 15.875 C-2.15013672 14.59109375 -2.15013672 14.59109375 -2.17578125 13.28125 C-2.21306681 8.43412707 -1.89580643 4.55292095 0 0 Z " fill="#5B7382" transform="translate(424,148)"/>
<path d="M0 0 C2.5636947 0.28318132 5.12561526 0.57622493 7.6875 0.875 C8.40873047 0.95363281 9.12996094 1.03226562 9.87304688 1.11328125 C13.88515932 1.5896051 17.29975512 2.26300142 21 4 C21 4.33 21 4.66 21 5 C14.40912571 5.44937779 8.25654835 4.06969278 2 2 C1.34 1.34 0.68 0.68 0 0 Z " fill="#414549" transform="translate(98,488)"/>
<path d="M0 0 C0.33 0.99 0.66 1.98 1 3 C2.65 3 4.3 3 6 3 C6.33 3.66 6.66 4.32 7 5 C5.865625 5.12375 4.73125 5.2475 3.5625 5.375 C1.7990625 5.684375 1.7990625 5.684375 0 6 C-0.33 6.66 -0.66 7.32 -1 8 C-1.66 8 -2.32 8 -3 8 C-3 9.98 -3 11.96 -3 14 C-3.33 14 -3.66 14 -4 14 C-4.125 6.375 -4.125 6.375 -3 3 C-2.01 3 -1.02 3 0 3 C0 2.01 0 1.02 0 0 Z " fill="#A5A5A5" transform="translate(266,263)"/>
<path d="M0 0 C0.66 0.33 1.32 0.66 2 1 C-9.88932806 9 -9.88932806 9 -17 9 C-17 8.01 -17 7.02 -17 6 C-15.576875 5.9071875 -15.576875 5.9071875 -14.125 5.8125 C-9.63524389 5.21570215 -6.05635571 3.13384497 -2.13671875 0.9609375 C-1.07904297 0.48527344 -1.07904297 0.48527344 0 0 Z " fill="#3E3F40" transform="translate(403,196)"/>
<path d="M0 0 C0.99 0 1.98 0 3 0 C3.93423645 3.01031744 4.04449911 3.86650268 3 7 C2.85426942 8.47965926 2.75336732 9.96403843 2.68359375 11.44921875 C2.64169922 12.29677734 2.59980469 13.14433594 2.55664062 14.01757812 C2.49766602 15.33918945 2.49766602 15.33918945 2.4375 16.6875 C2.39431641 17.58017578 2.35113281 18.47285156 2.30664062 19.39257812 C2.20064647 21.59490108 2.09857949 23.79733473 2 26 C1.67 26 1.34 26 1 26 C0.67 17.42 0.34 8.84 0 0 Z " fill="#414141" transform="translate(451,0)"/>
<path d="M0 0 C-6.61581199 3.52270508 -13.68557421 3.13245439 -21 3 C-21 2.67 -21 2.34 -21 2 C-13.87049629 0.09879901 -7.36259293 -0.22424141 0 0 Z " fill="#3D4145" transform="translate(169,491)"/>
<path d="M0 0 C-7.90322581 5.2688172 -7.90322581 5.2688172 -12.4375 4.6875 C-12.953125 4.460625 -13.46875 4.23375 -14 4 C-9.00193158 -0.30389225 -6.44855032 -1.61213758 0 0 Z " fill="#4F5255" transform="translate(305,255)"/>
<path d="M0 0 C1 3 1 3 -0.109375 5.41015625 C-0.65078125 6.28542969 -1.1921875 7.16070313 -1.75 8.0625 C-2.28109375 8.94035156 -2.8121875 9.81820312 -3.359375 10.72265625 C-5 13 -5 13 -8 15 C-6.31910452 8.85038239 -4.40439414 4.6424695 0 0 Z " fill="#657079" transform="translate(442,23)"/>
<path d="M0 0 C0.66 0.33 1.32 0.66 2 1 C2.33 1.99 2.66 2.98 3 4 C0.04044339 4.98651887 -1.92864836 5 -5 5 C-5.99 5.33 -6.98 5.66 -8 6 C-7 3 -7 3 -3.5625 1.25 C-2.386875 0.8375 -1.21125 0.425 0 0 Z " fill="#E8EBEE" transform="translate(333,179)"/>
<path d="M0 0 C0.66 0 1.32 0 2 0 C1.75 2.375 1.75 2.375 1 5 C-1.89810116 7.09862498 -3.28378861 7 -7 7 C-7 6.01 -7 5.02 -7 4 C-3.535 3.505 -3.535 3.505 0 3 C0 2.01 0 1.02 0 0 Z " fill="#9D9D9D" transform="translate(337,217)"/>
<path d="M0 0 C0.66 0.33 1.32 0.66 2 1 C-1.63 4.3 -5.26 7.6 -9 11 C-10 9 -10 9 -9.375 7 C-7.59321712 4.40831581 -5.91144245 4.06516187 -3 3 C-1.22722741 1.47992158 -1.22722741 1.47992158 0 0 Z " fill="#697278" transform="translate(79,365)"/>
<path d="M0 0 C0.93045933 2.55144824 1.08564091 3.74006478 0.22265625 6.359375 C-0.16019531 7.14828125 -0.54304688 7.9371875 -0.9375 8.75 C-1.50791016 9.94882812 -1.50791016 9.94882812 -2.08984375 11.171875 C-2.39019531 11.77515625 -2.69054687 12.3784375 -3 13 C-3.33 13 -3.66 13 -4 13 C-3.125 5.375 -3.125 5.375 -2 2 C-1.34 2 -0.68 2 0 2 C0 1.34 0 0.68 0 0 Z " fill="#4C5156" transform="translate(265,416)"/>
<path d="M0 0 C-0.99 0.33 -1.98 0.66 -3 1 C-3 1.66 -3 2.32 -3 3 C-6.63 3.66 -10.26 4.32 -14 5 C-14 4.34 -14 3.68 -14 3 C-4.58997722 -0.44419134 -4.58997722 -0.44419134 0 0 Z " fill="#C7CDD2" transform="translate(330,218)"/>
<path d="M0 0 C1.77260631 0.45142775 3.5430368 0.91140523 5.3125 1.375 C6.79169922 1.75785156 6.79169922 1.75785156 8.30078125 2.1484375 C11 3 11 3 14 5 C12.22825181 4.91276622 10.45752623 4.80458345 8.6875 4.6875 C7.70136719 4.62949219 6.71523437 4.57148438 5.69921875 4.51171875 C2.75227056 3.95303537 1.77915928 3.36209201 0 1 C0 0.67 0 0.34 0 0 Z " fill="#5E676E" transform="translate(91,484)"/>
<path d="M0 0 C1.12894876 0.93274109 2.25300876 1.87140122 3.375 2.8125 C4.00148438 3.33457031 4.62796875 3.85664063 5.2734375 4.39453125 C7 6 7 6 9 9 C7.68 9 6.36 9 5 9 C5 8.34 5 7.68 5 7 C4.01 6.67 3.02 6.34 2 6 C0.8125 2.9375 0.8125 2.9375 0 0 Z " fill="#74787E" transform="translate(60,462)"/>
<path d="M0 0 C0.33 0.66 0.66 1.32 1 2 C-0.7089149 5.84505853 -2.79076938 9.42315043 -5 13 C-5.68359375 11.296875 -5.68359375 11.296875 -6 9 C-4.78515625 6.640625 -4.78515625 6.640625 -3.0625 4.25 C-2.49660156 3.45078125 -1.93070312 2.6515625 -1.34765625 1.828125 C-0.90292969 1.22484375 -0.45820313 0.6215625 0 0 Z " fill="#D6D8DC" transform="translate(434,118)"/>
<path d="M0 0 C2.31 0 4.62 0 7 0 C7 0.66 7 1.32 7 2 C8.98 2 10.96 2 13 2 C10.62021205 3.49838501 9.34088901 4.02556668 6.5 3.8125 C3.83014678 2.9447977 2.12557819 1.81067772 0 0 Z " fill="#535353" transform="translate(366,216)"/>
<path d="M0 0 C0.33 0 0.66 0 1 0 C1.37048917 6.54530874 1.37048917 6.54530874 -0.375 8.6875 C-0.91125 9.120625 -1.4475 9.55375 -2 10 C-3.17574711 12.09989652 -3.17574711 12.09989652 -4 14 C-4.68041782 8.72676192 -2.24786337 4.60611289 0 0 Z " fill="#494949" transform="translate(429,138)"/>
<path d="M0 0 C2.31 0 4.62 0 7 0 C7 0.33 7 0.66 7 1 C5.35 1 3.7 1 2 1 C1.71125 1.969375 1.4225 2.93875 1.125 3.9375 C0 7 0 7 -2 8 C-2 6.02 -2 4.04 -2 2 C-1.34 2 -0.68 2 0 2 C0 1.34 0 0.68 0 0 Z " fill="#525252" transform="translate(265,269)"/>
<path d="M0 0 C1.15837573 3.47512718 0.77265943 5.13670286 0.0625 8.6875 C-0.13214844 9.68136719 -0.32679688 10.67523438 -0.52734375 11.69921875 C-0.68332031 12.45847656 -0.83929688 13.21773437 -1 14 C-1.33 14 -1.66 14 -2 14 C-2.25028811 12.41986783 -2.47440946 10.83557694 -2.6875 9.25 C-2.81511719 8.36828125 -2.94273437 7.4865625 -3.07421875 6.578125 C-2.98397191 3.44323483 -2.07384637 2.28176413 0 0 Z " fill="#E4E5E6" transform="translate(423,142)"/>
<path d="M0 0 C0 0.66 0 1.32 0 2 C-2.75 4.1875 -2.75 4.1875 -6 6 C-8.203125 5.61328125 -8.203125 5.61328125 -10 5 C-8.71186658 4.16121545 -7.41936744 3.32913217 -6.125 2.5 C-5.40570313 2.0359375 -4.68640625 1.571875 -3.9453125 1.09375 C-2 0 -2 0 0 0 Z " fill="#454C53" transform="translate(305,98)"/>
<path d="M0 0 C-2.64 1.98 -5.28 3.96 -8 6 C-8.66 5.67 -9.32 5.34 -10 5 C-6.58244111 0.23982869 -6.58244111 0.23982869 -3.875 -0.875 C-2 -1 -2 -1 0 0 Z " fill="#606E7B" transform="translate(95,356)"/>
<path d="M0 0 C2.3125 -0.3125 2.3125 -0.3125 5 0 C6.8125 2.5 6.8125 2.5 8 5 C5.36 4.34 2.72 3.68 0 3 C0 2.01 0 1.02 0 0 Z " fill="#D8D8D8" transform="translate(267,263)"/>
<path d="M0 0 C0.33 0 0.66 0 1 0 C1 3.3 1 6.6 1 10 C-1.475 9.01 -1.475 9.01 -4 8 C-3.2884375 7.13375 -3.2884375 7.13375 -2.5625 6.25 C-1.0515133 4.07417916 -0.45963849 2.57397552 0 0 Z " fill="#BEC7CF" transform="translate(230,335)"/>
<path d="M0 0 C0.33 0 0.66 0 1 0 C1.93402724 5.41735797 2.20808081 8.80451575 0 14 C-0.33 14 -0.66 14 -1 14 C-1.08333357 9.1666528 -0.95261487 4.76307437 0 0 Z " fill="#414141" transform="translate(441,100)"/>
<path d="M0 0 C1.258125 0.12375 2.51625 0.2475 3.8125 0.375 C4.87404297 0.47941406 4.87404297 0.47941406 5.95703125 0.5859375 C8 1 8 1 11 3 C8.03 3 5.06 3 2 3 C2 2.34 2 1.68 2 1 C1.34 0.67 0.68 0.34 0 0 Z " fill="#43484D" transform="translate(205,334)"/>
<path d="M0 0 C-1.12073862 0.83905565 -2.24674547 1.67107831 -3.375 2.5 C-4.00148438 2.9640625 -4.62796875 3.428125 -5.2734375 3.90625 C-7 5 -7 5 -9 5 C-8 2 -8 2 -5.625 0.25 C-3 -1 -3 -1 0 0 Z " fill="#343434" transform="translate(291,261)"/>
<path d="M0 0 C0.33 0.66 0.66 1.32 1 2 C0.34 2 -0.32 2 -1 2 C-1.4021875 3.2065625 -1.4021875 3.2065625 -1.8125 4.4375 C-2.4003125 5.7059375 -2.4003125 5.7059375 -3 7 C-3.99 7.33 -4.98 7.66 -6 8 C-5.67 7.01 -5.34 6.02 -5 5 C-4.34 5 -3.68 5 -3 5 C-2.87625 4.360625 -2.7525 3.72125 -2.625 3.0625 C-2.41875 2.381875 -2.2125 1.70125 -2 1 C-1.34 0.67 -0.68 0.34 0 0 Z " fill="#4B5359" transform="translate(256,436)"/>
<path d="M0 0 C2.97 0 5.94 0 9 0 C8.01 1.485 8.01 1.485 7 3 C4.03824877 2.38722388 2.61941217 1.74627478 0 0 Z " fill="#E0E0E0" transform="translate(332,230)"/>
<path d="M0 0 C1.32 0.33 2.64 0.66 4 1 C4.625 3.3125 4.625 3.3125 5 6 C4.01 7.485 4.01 7.485 3 9 C2.8046875 6.94921875 2.609375 4.8984375 2.4140625 2.84765625 C2.27742188 2.23792969 2.14078125 1.62820312 2 1 C1.34 0.67 0.68 0.34 0 0 Z " fill="#202020" transform="translate(380,217)"/>
<path d="M0 0 C0.8125 1.6875 0.8125 1.6875 1 4 C-1.4375 6.75 -1.4375 6.75 -4 9 C-2.94124926 5.59687262 -1.99097846 2.98646769 0 0 Z " fill="#3D454B" transform="translate(244,157)"/>
</svg>
